<?xml version="1.0" encoding="utf-8"?>
<!-- Generator: Adobe Illustrator 21.0.2, SVG Export Plug-In . SVG Version: 6.00 Build 0)  -->
<svg version="1.1" id="Layer_1" xmlns="http://www.w3.org/2000/svg" xmlns:xlink="http://www.w3.org/1999/xlink" x="0px" y="0px"
	 viewBox="0 0 1150 1190" style="enable-background:new 0 0 1150 1190;" xml:space="preserve">
<style type="text/css">
	.st0{fill:#FFFFFF;}
</style>
<path d="M911.8,937.7H236.4c-13.9,0-25.1-11.3-25.1-25.1V237.1c0-13.9,11.3-25.1,25.1-25.1h675.4c13.9,0,25.1,11.3,25.1,25.1v675.4
	C937,926.4,925.7,937.7,911.8,937.7z M236.4,235.9c-0.7,0-1.3,0.6-1.3,1.3v675.4c0,0.7,0.6,1.3,1.3,1.3h675.4c0.7,0,1.3-0.6,1.3-1.3
	V237.1c0-0.7-0.6-1.3-1.3-1.3H236.4z"/>
<path d="M435,592.3c-2.8,2.8-6.4,4.5-10.3,4.8h-57.3c-37.7,0-68.4,30.7-68.4,68.4c0,37.7,30.7,68.4,68.4,68.4h91.1
	c18.3,0,35.4-7.1,48.4-20L711.8,509c2.8-2.8,6.4-4.5,10.4-4.8h57.2c37.7,0,68.4-30.7,68.4-68.4c0-18.3-7.1-35.5-20-48.4
	c-12.9-12.9-30.1-20-48.4-20l0,0h-91.1c-18.3,0-35.5,7.1-48.4,20L435,592.3z M611,449.3l45.4-45.4c8.5-8.5,19.8-13.2,31.9-13.2h91.1
	c12,0,23.3,4.7,31.9,13.2c8.5,8.5,13.2,19.8,13.2,31.9c0,24.8-20.2,45.1-45,45.1l-55.8-0.1c-10.7,0-20.7,4.2-28.3,11.7L490.4,697.4
	c-8.5,8.5-19.8,13.2-31.9,13.2h-91.1c-24.8,0-45.1-20.2-45.1-45.1c0-24.8,20.2-45,45.1-45l55.7,0.1c10.7,0,20.8-4.2,28.3-11.7
	L611,449.3z"/>
<ellipse transform="matrix(0.7071 -0.7071 0.7071 0.7071 -190.1387 407.0481)" cx="396.3" cy="433" rx="29.7" ry="29.7"/>
<path d="M428.7,495.9L372.6,552c-14.3,14.3-33-4.3-18.6-18.6l56-56l30.5-30.4l69.3-69.2l95.1-95.1c6.4-6.4,16.8-6.4,23.3,0
	c6.4,6.4,6.4,16.8,0,23.3L539,395l8.3,8.3l89.1-89.1c6.4-6.4,16.8-6.4,23.3,0c6.4,6.4,6.4,16.8,0,23.3l-93.6,93.6l-68.6,68.6
	l-17.3,17.3c-8.4,8.4-22.2,8.4-30.6,0l-17.3-17.3L428.7,495.9z"/>
<g>
	<path d="M899.8,777c-68.2,0-130.6-40.1-158.8-102.2c-19.3-42.4-20.9-89.7-4.5-133.3c16.3-43.6,48.7-78.2,91.1-97.5
		c22.9-10.4,47.1-15.7,72-15.7c68.2,0,130.6,40.1,158.8,102.2c39.8,87.5,1,191-86.5,230.8C949,771.7,924.7,777,899.8,777z"/>
	<g>
		<path class="st0" d="M899.6,437.6c31.3,0,61.8,8.8,88.3,25.6c27.2,17.2,48.6,41.8,62,71.2c18.2,40.1,19.8,84.9,4.3,126.2
			c-15.5,41.3-46.1,74-86.2,92.3c-21.7,9.8-44.6,14.8-68.2,14.8c-31.3,0-61.8-8.8-88.3-25.6c-27.2-17.2-48.6-41.8-62-71.2
			c-18.2-40.1-19.8-84.9-4.3-126.2c15.5-41.3,46.1-74,86.2-92.3C853.1,442.6,876,437.6,899.6,437.6L899.6,437.6 M899.6,418.9
			c-25.4,0-51.2,5.3-75.9,16.5c-92.3,42-133.2,150.9-91.2,243.2c30.8,67.7,97.5,107.7,167.3,107.7c25.4,0,51.2-5.3,75.9-16.5
			c92.3-42,133.2-150.9,91.2-243.2C1036.1,458.9,969.4,418.9,899.6,418.9L899.6,418.9z"/>
	</g>
</g>
<g>
	<g>
		<g>
			<path class="st0" d="M844.4,705.9l19.7-9l-7.5-23.1l20.9-9.5l12.6,20.8l19.9-9.1l-76-127l-35.8,16.3L844.4,705.9z M849.9,653.1
				l-28.5-83.4l45.4,75.7L849.9,653.1z"/>
		</g>
	</g>
	<g>
		<g>
			
				<rect x="889.3" y="526.3" transform="matrix(0.9103 -0.4138 0.4138 0.9103 -167.527 426.3034)" class="st0" width="21.7" height="147"/>
		</g>
	</g>
	<g>
		<g>
			<path class="st0" d="M956,655.2l19.9-9.1l-29.6-65.2l6.6-3c2.4-1.1,4.4-1.2,6-0.3c1.6,0.9,3.1,2.9,4.6,6l25.7,56.5l19.9-9.1
				l-24.9-54.8l-0.2-0.4c-3.9-8.6-9.6-11.7-17.1-9.4c3.5-3.3,5.5-6.4,5.9-9.4c0.4-3-0.7-7.3-3.2-12.8l-12.2-26.9
				c-1.7-3.7-3-6.2-4.1-7.7c-1-1.4-2.5-2.8-4.5-4c-2.7-1.7-5.6-2.5-8.5-2.5c-1.6-0.1-3.1,0.1-4.7,0.5c-1.6,0.4-3.1,0.9-4.5,1.4
				l-5.7,2.6l-30.3,13.8L956,655.2z M938.3,563.5l-14.9-32.8l6.8-3.1c2.8-1.3,4.9-1.3,6.4,0c1.5,1.2,3.3,4.3,5.5,9.1l6.9,15.2
				c1.7,3.8,0.1,6.8-4.8,9L938.3,563.5z"/>
		</g>
	</g>
</g>
<g>
	<path d="M393,795.8c3.5,1.6,6.3,4,8.6,7.4c2,3,3.4,6.4,4,10.3c0.4,2.3,0.5,5.6,0.4,9.9h-36.3c0.2,5,1.9,8.5,5.2,10.5
		c2,1.2,4.4,1.9,7.2,1.9c3,0,5.4-0.8,7.2-2.3c1-0.8,1.9-2,2.7-3.4h13.3c-0.4,3-2,6-4.8,9c-4.5,4.8-10.7,7.3-18.7,7.3
		c-6.6,0-12.5-2-17.5-6.1c-5.1-4.1-7.6-10.7-7.6-19.9c0-8.6,2.3-15.2,6.9-19.8c4.6-4.6,10.5-6.9,17.8-6.9
		C385.7,793.4,389.6,794.2,393,795.8z M373.6,807c-1.8,1.9-3,4.5-3.5,7.7h22.4c-0.2-3.5-1.4-6.1-3.5-7.9c-2.1-1.8-4.6-2.7-7.7-2.7
		C378,804.2,375.4,805.1,373.6,807z"/>
	<path d="M451.1,797.6c3.3,2.7,4.9,7.2,4.9,13.4v33.5h-13.3v-30.3c0-2.6-0.3-4.6-1-6c-1.3-2.6-3.7-3.8-7.3-3.8c-4.4,0-7.4,1.9-9,5.6
		c-0.8,2-1.3,4.5-1.3,7.6v26.9h-13v-49.7h12.6v7.3c1.7-2.6,3.2-4.4,4.7-5.5c2.7-2,6-3,10.1-3C443.6,793.6,447.8,794.9,451.1,797.6z"
		/>
	<path d="M473.9,828.6c0.3,2.3,0.9,4,1.8,4.9c1.6,1.7,4.6,2.6,9,2.6c2.6,0,4.6-0.4,6.1-1.1c1.5-0.8,2.3-1.9,2.3-3.4
		c0-1.5-0.6-2.6-1.8-3.3c-1.2-0.8-5.8-2.1-13.6-3.9c-5.7-1.4-9.6-3.2-12-5.3c-2.3-2.1-3.5-5.1-3.5-9c0-4.6,1.8-8.5,5.4-11.9
		c3.6-3.3,8.7-5,15.3-5c6.2,0,11.3,1.2,15.2,3.7c3.9,2.5,6.2,6.8,6.8,12.9h-13c-0.2-1.7-0.7-3-1.4-4c-1.4-1.8-3.9-2.6-7.3-2.6
		c-2.8,0-4.9,0.4-6.1,1.3c-1.2,0.9-1.8,1.9-1.8,3.1c0,1.5,0.6,2.6,1.9,3.2c1.3,0.7,5.8,1.9,13.6,3.6c5.2,1.2,9.1,3.1,11.7,5.5
		c2.6,2.5,3.8,5.6,3.8,9.4c0,4.9-1.8,9-5.5,12.1c-3.7,3.1-9.4,4.7-17,4.7c-7.8,0-13.6-1.7-17.4-5c-3.7-3.3-5.6-7.5-5.6-12.6H473.9z"
		/>
	<path d="M542.6,812.6c-0.2-1.9-0.9-3.5-1.9-5c-1.5-2-3.7-3-6.8-3c-4.4,0-7.4,2.2-9,6.5c-0.9,2.3-1.3,5.4-1.3,9.2
		c0,3.6,0.4,6.6,1.3,8.8c1.6,4.1,4.5,6.2,8.8,6.2c3.1,0,5.2-0.8,6.5-2.5c1.3-1.6,2.1-3.8,2.3-6.4h13.3c-0.3,4-1.7,7.7-4.3,11.2
		c-4.1,5.7-10.1,8.5-18.1,8.5s-13.9-2.4-17.7-7.1c-3.8-4.7-5.7-10.9-5.7-18.5c0-8.5,2.1-15.2,6.3-19.9c4.2-4.7,9.9-7.1,17.3-7.1
		c6.2,0,11.4,1.4,15.3,4.2c4,2.8,6.3,7.7,7.1,14.8H542.6z"/>
	<path d="M583.1,814.3c2.4-0.3,4.2-0.7,5.2-1.1c1.9-0.8,2.8-2,2.8-3.7c0-2-0.7-3.4-2.2-4.2c-1.4-0.8-3.5-1.2-6.3-1.2
		c-3.1,0-5.3,0.8-6.6,2.3c-0.9,1.1-1.5,2.6-1.9,4.6h-12.6c0.3-4.4,1.5-7.9,3.7-10.7c3.5-4.4,9.4-6.6,17.8-6.6
		c5.5,0,10.3,1.1,14.6,3.2c4.2,2.2,6.4,6.2,6.4,12.2v22.8c0,1.6,0,3.5,0.1,5.8c0.1,1.7,0.4,2.9,0.8,3.5c0.4,0.6,1.1,1.1,1.9,1.5v1.9
		h-14.2c-0.4-1-0.7-1.9-0.8-2.8c-0.2-0.9-0.3-1.9-0.4-3c-1.8,1.9-3.9,3.6-6.2,5c-2.8,1.6-6,2.4-9.6,2.4c-4.5,0-8.3-1.3-11.2-3.9
		c-3-2.6-4.4-6.2-4.4-10.9c0-6.1,2.4-10.5,7.1-13.3c2.6-1.5,6.4-2.6,11.5-3.2L583.1,814.3z M591.1,820.3c-0.8,0.5-1.7,0.9-2.5,1.3
		c-0.8,0.3-2,0.6-3.5,0.9l-3,0.5c-2.8,0.5-4.8,1.1-6,1.8c-2,1.2-3.1,3-3.1,5.5c0,2.2,0.6,3.8,1.9,4.8c1.3,1,2.8,1.5,4.6,1.5
		c2.8,0,5.5-0.8,7.9-2.5c2.4-1.6,3.6-4.6,3.7-9V820.3z"/>
	<path d="M625.1,844.5h-13v-67.3h13V844.5z"/>
	<path d="M653.8,814.3c2.4-0.3,4.2-0.7,5.2-1.1c1.9-0.8,2.8-2,2.8-3.7c0-2-0.7-3.4-2.2-4.2c-1.4-0.8-3.5-1.2-6.3-1.2
		c-3.1,0-5.3,0.8-6.6,2.3c-0.9,1.1-1.5,2.6-1.9,4.6h-12.6c0.3-4.4,1.5-7.9,3.7-10.7c3.5-4.4,9.4-6.6,17.8-6.6
		c5.5,0,10.3,1.1,14.6,3.2c4.2,2.2,6.4,6.2,6.4,12.2v22.8c0,1.6,0,3.5,0.1,5.8c0.1,1.7,0.4,2.9,0.8,3.5c0.4,0.6,1.1,1.1,1.9,1.5v1.9
		h-14.2c-0.4-1-0.7-1.9-0.8-2.8c-0.2-0.9-0.3-1.9-0.4-3c-1.8,1.9-3.9,3.6-6.2,5c-2.8,1.6-6,2.4-9.6,2.4c-4.5,0-8.3-1.3-11.2-3.9
		c-3-2.6-4.4-6.2-4.4-10.9c0-6.1,2.4-10.5,7.1-13.3c2.6-1.5,6.4-2.6,11.5-3.2L653.8,814.3z M661.8,820.3c-0.8,0.5-1.7,0.9-2.5,1.3
		c-0.8,0.3-2,0.6-3.5,0.9l-3,0.5c-2.8,0.5-4.8,1.1-6,1.8c-2,1.2-3.1,3-3.1,5.5c0,2.2,0.6,3.8,1.9,4.8c1.3,1,2.8,1.5,4.6,1.5
		c2.8,0,5.5-0.8,7.9-2.5c2.4-1.6,3.6-4.6,3.7-9V820.3z"/>
	<path d="M678.6,804.5v-9.3h6.9v-13.9h12.9v13.9h8.1v9.3h-8.1v26.3c0,2,0.3,3.3,0.8,3.8c0.5,0.5,2.1,0.8,4.7,0.8c0.4,0,0.8,0,1.3,0
		c0.4,0,0.9,0,1.3-0.1v9.7l-6.2,0.2c-6.1,0.2-10.4-0.9-12.6-3.2c-1.5-1.5-2.2-3.8-2.2-6.9v-30.6H678.6z"/>
	<path d="M753.3,838.4c-4.2,5.2-10.6,7.8-19.1,7.8c-8.6,0-14.9-2.6-19.1-7.8c-4.2-5.2-6.3-11.4-6.3-18.7c0-7.2,2.1-13.4,6.3-18.7
		c4.2-5.3,10.6-7.9,19.1-7.9c8.6,0,14.9,2.6,19.1,7.9c4.2,5.3,6.3,11.5,6.3,18.7C759.6,827,757.5,833.3,753.3,838.4z M742.9,831.3
		c2-2.7,3.1-6.6,3.1-11.5c0-5-1-8.8-3.1-11.5c-2-2.7-5-4-8.8-4c-3.8,0-6.7,1.3-8.8,4c-2.1,2.7-3.1,6.5-3.1,11.5c0,5,1,8.8,3.1,11.5
		c2.1,2.7,5,4.1,8.8,4.1C737.9,835.3,740.8,834,742.9,831.3z"/>
	<path d="M792.9,793.6c0.2,0,0.5,0,1.1,0.1V807c-0.8-0.1-1.6-0.2-2.2-0.2c-0.6,0-1.2,0-1.6,0c-5.2,0-8.8,1.7-10.5,5.1
		c-1,1.9-1.5,4.9-1.5,8.9v23.8h-13.1v-49.8h12.4v8.7c2-3.3,3.8-5.6,5.3-6.8c2.4-2,5.6-3.1,9.5-3.1
		C792.5,793.6,792.7,793.6,792.9,793.6z"/>
</g>
</svg>
